<?xml version="1.0" encoding="UTF-8"?>
<svg width="504" height="360" viewBox="0 0 504 360" fill="none" xmlns="http://www.w3.org/2000/svg">
  <path fill-rule="evenodd" clip-rule="evenodd" d="M0 198.781C0 189.898 7.19625 182.701 16.0787 182.701H112.549C121.432 182.701 128.628 189.898 128.628 198.781V343.92C128.628 352.803 121.432 360 112.549 360H16.0787C7.19625 360 0 352.803 0 343.92V198.781Z" fill="#FBFBFB"/>
  <path fill-rule="evenodd" clip-rule="evenodd" d="M134.747 126.686C134.747 117.803 141.943 110.607 150.826 110.607H247.296C256.179 110.607 263.375 117.803 263.375 126.686V343.92C263.375 352.803 256.179 360 247.296 360H150.826C141.943 360 134.747 352.803 134.747 343.92V126.686Z" fill="#FBFBFB"/>
  <path fill-rule="evenodd" clip-rule="evenodd" d="M269.494 16.0787C269.494 7.19625 276.69 0 285.573 0H382.043C390.926 0 398.122 7.19625 398.122 16.0787V343.92C398.122 352.803 390.926 360 382.043 360H285.573C276.69 360 269.494 352.803 269.494 343.92V16.0787Z" fill="#FBFBFB"/>
  <path fill-rule="evenodd" clip-rule="evenodd" d="M404.241 126.686C404.241 117.803 411.437 110.607 420.32 110.607H487.921C496.804 110.607 504 117.803 504 126.686V343.92C504 352.803 496.804 360 487.921 360H420.32C411.437 360 404.241 352.803 404.241 343.92V126.686Z" fill="#FBFBFB"/>
  <path d="M53.0196 275.974V267.935H59.6184C61.8905 267.935 63.7331 267.522 65.1461 266.695C66.5591 265.868 67.6248 264.729 68.3431 263.277C69.0615 261.826 69.4207 260.149 69.4207 258.246C69.4207 256.344 69.0615 254.667 68.3431 253.215C67.6248 251.764 66.5591 250.625 65.1461 249.798C63.7331 248.971 61.8905 248.558 59.6184 248.558H53.0196V240.519H59.6184C63.3326 240.519 66.5177 241.17 69.1738 242.473C71.8712 243.775 73.9427 245.657 75.3882 248.119C76.8338 250.54 77.5566 253.275 77.5566 256.322V260.17C77.5566 263.217 76.8338 265.972 75.3882 268.434C73.9427 270.855 71.8712 272.737 69.1738 274.08C66.5177 275.343 63.3326 275.974 59.6184 275.974H53.0196Z" fill="#2065D1"/>
  <path d="M106.728 248.558H91.9511V240.519H129.608V248.558H114.831V275.974H106.728V248.558Z" fill="#2065D1"/>
  <path d="M165.86 276.501C162.187 276.501 158.964 275.85 156.184 274.548C153.445 273.205 151.332 271.302 149.804 268.841C148.317 266.379 147.574 263.557 147.574 260.375V256.088C147.574 252.864 148.317 250.022 149.804 247.561C151.332 245.099 153.445 243.217 156.184 241.915C158.964 240.613 162.187 239.962 165.86 239.962C169.533 239.962 172.735 240.613 175.474 241.915C178.254 243.217 180.367 245.099 181.813 247.561C183.3 250.022 184.043 252.864 184.043 256.088V260.375C184.043 263.557 183.3 266.379 181.813 268.841C180.367 271.302 178.254 273.205 175.474 274.548C172.735 275.85 169.533 276.501 165.86 276.501ZM165.86 268.434C167.801 268.434 169.533 268.062 171.057 267.318C172.621 266.532 173.852 265.434 174.735 264.024C175.66 262.573 176.131 261.003 176.151 259.315V257.148C176.151 255.419 175.681 253.829 174.735 252.378C173.832 250.926 172.58 249.798 170.975 248.992C169.41 248.187 167.698 247.784 165.86 247.784C164.021 247.784 162.311 248.187 160.725 248.992C159.182 249.798 157.929 250.926 156.965 252.378C156.042 253.829 155.581 255.419 155.581 257.148V259.315C155.581 261.003 156.042 262.573 156.965 264.024C157.929 265.434 159.182 266.532 160.725 267.318C162.311 268.062 164.021 268.434 165.86 268.434Z" fill="#2065D1"/>
  <path d="M217.217 276.501C213.544 276.501 210.321 275.85 207.541 274.548C204.802 273.205 202.689 271.302 201.161 268.841C199.674 266.379 198.931 263.557 198.931 260.375V256.088C198.931 252.864 199.674 250.022 201.161 247.561C202.689 245.099 204.802 243.217 207.541 241.915C210.321 240.613 213.544 239.962 217.217 239.962C220.89 239.962 224.092 240.613 226.831 241.915C229.611 243.217 231.724 245.099 233.17 247.561C234.657 250.022 235.4 252.864 235.4 256.088V260.375C235.4 263.557 234.657 266.379 233.17 268.841C231.724 271.302 229.611 273.205 226.831 274.548C224.092 275.85 220.89 276.501 217.217 276.501ZM217.217 268.434C219.158 268.434 220.89 268.062 222.414 267.318C223.978 266.532 225.209 265.434 226.092 264.024C227.017 262.573 227.488 261.003 227.508 259.315V257.148C227.508 255.419 227.038 253.829 226.092 252.378C225.189 250.926 223.937 249.798 222.332 248.992C220.767 248.187 219.055 247.784 217.217 247.784C215.378 247.784 213.668 248.187 212.082 248.992C210.539 249.798 209.286 250.926 208.322 252.378C207.399 253.829 206.938 255.419 206.938 257.148V259.315C206.938 261.003 207.399 262.573 208.322 264.024C209.286 265.434 210.539 266.532 212.082 267.318C213.668 268.062 215.378 268.434 217.217 268.434Z" fill="#2065D1"/>
  <path d="M268.574 276.501C264.901 276.501 261.678 275.85 258.898 274.548C256.159 273.205 254.046 271.302 252.518 268.841C251.031 266.379 250.288 263.557 250.288 260.375V256.088C250.288 252.864 251.031 250.022 252.518 247.561C254.046 245.099 256.159 243.217 258.898 241.915C261.678 240.613 264.901 239.962 268.574 239.962C272.247 239.962 275.449 240.613 278.188 241.915C280.968 243.217 283.081 245.099 284.527 247.561C286.014 250.022 286.757 252.864 286.757 256.088V260.375C286.757 263.557 286.014 266.379 284.527 268.841C283.081 271.302 280.968 273.205 278.188 274.548C275.449 275.85 272.247 276.501 268.574 276.501ZM268.574 268.434C270.515 268.434 272.247 268.062 273.771 267.318C275.335 266.532 276.566 265.434 277.449 264.024C278.374 262.573 278.845 261.003 278.865 259.315V257.148C278.865 255.419 278.395 253.829 277.449 252.378C276.546 250.926 275.294 249.798 273.689 248.992C272.124 248.187 270.412 247.784 268.574 247.784C266.735 247.784 265.025 248.187 263.439 248.992C261.896 249.798 260.643 250.926 259.679 252.378C258.756 253.829 258.295 255.419 258.295 257.148V259.315C258.295 261.003 258.756 262.573 259.679 264.024C260.643 265.434 261.896 266.532 263.439 267.318C265.025 268.062 266.735 268.434 268.574 268.434Z" fill="#2065D1"/>
  <path d="M319.931 276.501C316.258 276.501 313.035 275.85 310.255 274.548C307.516 273.205 305.403 271.302 303.875 268.841C302.388 266.379 301.645 263.557 301.645 260.375V256.088C301.645 252.864 302.388 250.022 303.875 247.561C305.403 245.099 307.516 243.217 310.255 241.915C313.035 240.613 316.258 239.962 319.931 239.962C323.604 239.962 326.806 240.613 329.545 241.915C332.325 243.217 334.438 245.099 335.884 247.561C337.371 250.022 338.114 252.864 338.114 256.088V260.375C338.114 263.557 337.371 266.379 335.884 268.841C334.438 271.302 332.325 273.205 329.545 274.548C326.806 275.85 323.604 276.501 319.931 276.501ZM319.931 268.434C321.872 268.434 323.604 268.062 325.128 267.318C326.692 266.532 327.923 265.434 328.806 264.024C329.731 262.573 330.202 261.003 330.222 259.315V257.148C330.222 255.419 329.752 253.829 328.806 252.378C327.903 250.926 326.651 249.798 325.046 248.992C323.481 248.187 321.769 247.784 319.931 247.784C318.092 247.784 316.382 248.187 314.796 248.992C313.253 249.798 312 250.926 311.036 252.378C310.113 253.829 309.652 255.419 309.652 257.148V259.315C309.652 261.003 310.113 262.573 311.036 264.024C312 265.434 313.253 266.532 314.796 267.318C316.382 268.062 318.092 268.434 319.931 268.434Z" fill="#2065D1"/>
  <path d="M371.288 276.501C367.615 276.501 364.392 275.85 361.612 274.548C358.873 273.205 356.76 271.302 355.232 268.841C353.745 266.379 353.002 263.557 353.002 260.375V256.088C353.002 252.864 353.745 250.022 355.232 247.561C356.76 245.099 358.873 243.217 361.612 241.915C364.392 240.613 367.615 239.962 371.288 239.962C374.961 239.962 378.163 240.613 380.902 241.915C383.682 243.217 385.795 245.099 387.241 247.561C388.728 250.022 389.471 252.864 389.471 256.088V260.375C389.471 263.557 388.728 266.379 387.241 268.841C385.795 271.302 383.682 273.205 380.902 274.548C378.163 275.85 374.961 276.501 371.288 276.501ZM371.288 268.434C373.229 268.434 374.961 268.062 376.485 267.318C378.049 266.532 379.28 265.434 380.163 264.024C381.088 262.573 381.559 261.003 381.579 259.315V257.148C381.579 255.419 381.109 253.829 380.163 252.378C379.26 250.926 378.008 249.798 376.403 248.992C374.838 248.187 373.126 247.784 371.288 247.784C369.449 247.784 367.739 248.187 366.153 248.992C364.61 249.798 363.357 250.926 362.393 252.378C361.47 253.829 361.009 255.419 361.009 257.148V259.315C361.009 261.003 361.47 262.573 362.393 264.024C363.357 265.434 364.61 266.532 366.153 267.318C367.739 268.062 369.449 268.434 371.288 268.434Z" fill="#2065D1"/>
  <path d="M422.645 276.501C418.972 276.501 415.749 275.85 412.969 274.548C410.23 273.205 408.117 271.302 406.589 268.841C405.102 266.379 404.359 263.557 404.359 260.375V256.088C404.359 252.864 405.102 250.022 406.589 247.561C408.117 245.099 410.23 243.217 412.969 241.915C415.749 240.613 418.972 239.962 422.645 239.962C426.318 239.962 429.52 240.613 432.259 241.915C435.039 243.217 437.152 245.099 438.598 247.561C440.085 250.022 440.828 252.864 440.828 256.088V260.375C440.828 263.557 440.085 266.379 438.598 268.841C437.152 271.302 435.039 273.205 432.259 274.548C429.52 275.85 426.318 276.501 422.645 276.501ZM422.645 268.434C424.586 268.434 426.318 268.062 427.842 267.318C429.406 266.532 430.637 265.434 431.52 264.024C432.445 262.573 432.916 261.003 432.936 259.315V257.148C432.936 255.419 432.466 253.829 431.52 252.378C430.617 250.926 429.365 249.798 427.76 248.992C426.195 248.187 424.483 247.784 422.645 247.784C420.806 247.784 419.096 248.187 417.51 248.992C415.967 249.798 414.714 250.926 413.75 252.378C412.827 253.829 412.366 255.419 412.366 257.148V259.315C412.366 261.003 412.827 262.573 413.75 264.024C414.714 265.434 415.967 266.532 417.51 267.318C419.096 268.062 420.806 268.434 422.645 268.434Z" fill="#2065D1"/>
  <path d="M474.002 276.501C470.329 276.501 467.106 275.85 464.326 274.548C461.587 273.205 459.474 271.302 457.946 268.841C456.459 266.379 455.716 263.557 455.716 260.375V256.088C455.716 252.864 456.459 250.022 457.946 247.561C459.474 245.099 461.587 243.217 464.326 241.915C467.106 240.613 470.329 239.962 474.002 239.962C477.675 239.962 480.877 240.613 483.616 241.915C486.396 243.217 488.509 245.099 489.955 247.561C491.442 250.022 492.185 252.864 492.185 256.088V260.375C492.185 263.557 491.442 266.379 489.955 268.841C488.509 271.302 486.396 273.205 483.616 274.548C480.877 275.85 477.675 276.501 474.002 276.501ZM474.002 268.434C475.943 268.434 477.675 268.062 479.199 267.318C480.763 266.532 481.994 265.434 482.877 264.024C483.802 262.573 484.273 261.003 484.293 259.315V257.148C484.293 255.419 483.823 253.829 482.877 252.378C481.974 250.926 480.722 249.798 479.117 248.992C477.552 248.187 475.84 247.784 474.002 247.784C472.163 247.784 470.453 248.187 468.867 248.992C467.324 249.798 466.071 250.926 465.107 252.378C464.184 253.829 463.723 255.419 463.723 257.148V259.315C463.723 261.003 464.184 262.573 465.107 264.024C466.071 265.434 467.324 266.532 468.867 267.318C470.453 268.062 472.163 268.434 474.002 268.434Z" fill="#2065D1"/>
</svg> 